<svg width="415" height="390" viewBox="0 0 415 390" fill="none" xmlns="http://www.w3.org/2000/svg">
<g filter="url(#filter0_d)">
<rect x="20" y="40" width="375" height="287" fill="#191919"/>
</g>
<mask id="mask0" mask-type="alpha" maskUnits="userSpaceOnUse" x="146" y="120" width="124" height="143">
<path d="M207.672 120L269.343 155.606V226.819L207.672 262.425L146 226.819V155.606L207.672 120Z" fill="white"/>
</mask>
<g mask="url(#mask0)">
<path d="M159.625 119.142H145.897V263.283H159.625V119.142Z" fill="white"/>
<path d="M187.08 119.142H173.353V263.283H187.08V119.142Z" fill="white"/>
<path d="M214.536 119.142H200.808V263.283H214.536V119.142Z" fill="white"/>
<path d="M209.17 134.524L202.306 122.635L77.4762 194.706L84.34 206.594L209.17 134.524Z" fill="white"/>
<path d="M333.577 190.293L326.713 178.404L201.883 250.475L208.747 262.363L333.577 190.293Z" fill="white"/>
<path d="M241.991 119.142H228.263V263.283H241.991V119.142Z" fill="white"/>
<path d="M269.446 119.142H255.719V263.283H269.446V119.142Z" fill="white"/>
</g>
<path d="M125.436 344H105.006C102.097 344 100 346.037 100 348.731V365.883C100 368.577 102.097 370.614 105.006 370.614H120.904C121.851 370.614 122.189 371.074 122.189 371.863V381.26C122.189 382.114 121.851 382.574 120.904 382.574H109.539C108.591 382.574 108.253 382.114 108.253 381.26V376.594H100V385.269C100 387.897 102.097 390 105.006 390H125.436C128.413 390 130.442 387.897 130.442 385.269V367.92C130.442 365.226 128.413 363.189 125.436 363.189H109.539C108.591 363.189 108.253 362.729 108.253 361.874V352.74C108.253 351.886 108.591 351.426 109.539 351.426H120.904C121.851 351.426 122.189 351.886 122.189 352.74V356.814H130.442V348.731C130.442 346.037 128.413 344 125.436 344Z" fill="#191919"/>
<path d="M159.254 344V381.26C159.254 382.114 158.916 382.574 157.968 382.574H146.603C145.656 382.574 145.318 382.114 145.318 381.26V344H137.065V385.269C137.065 387.897 139.162 390 142.071 390H162.501C165.477 390 167.507 387.897 167.507 385.269V344H159.254Z" fill="#191919"/>
<path d="M215.728 344H204.16L194.824 371.534L185.488 344H174.259V390H182.512V358.851L191.306 384.217H198.409L207.474 357.931V390H215.728V344Z" fill="#191919"/>
<path d="M263.954 344H252.386L243.05 371.534L233.715 344H222.485V390H230.738V358.851L239.533 384.217H246.636L255.701 357.931V390H263.954V344Z" fill="#191919"/>
<path d="M270.914 390H279.168V344H270.914V390Z" fill="#191919"/>
<path d="M315 344H284.558V351.426H295.72V390H303.973V351.426H315V344Z" fill="#191919"/>
<path d="M121.596 303H115.571L110.71 317.636L105.848 303H100V327.451H104.298V310.894L108.878 324.377H112.577L117.298 310.405V327.451H121.596V303Z" fill="white"/>
<path d="M140.98 303H130.341C128.826 303 127.734 304.083 127.734 305.515V324.936C127.734 326.333 128.826 327.451 130.341 327.451H140.98C142.53 327.451 143.587 326.333 143.587 324.936V305.515C143.587 304.083 142.53 303 140.98 303ZM139.289 307.646V322.805C139.289 323.259 139.113 323.504 138.619 323.504H132.701C132.208 323.504 132.032 323.259 132.032 322.805V307.646C132.032 307.192 132.208 306.947 132.701 306.947H138.619C139.113 306.947 139.289 307.192 139.289 307.646Z" fill="white"/>
<path d="M162.971 303H149.725V327.451H162.971C164.521 327.451 165.578 326.333 165.578 324.936V305.515C165.578 304.083 164.521 303 162.971 303ZM161.28 307.646V322.805C161.28 323.259 161.104 323.504 160.611 323.504H154.023V306.947H160.611C161.104 306.947 161.28 307.192 161.28 307.646Z" fill="white"/>
<path d="M185.912 306.947V303H171.715V327.451H185.912V323.504H176.013V317.182H183.411V313.2H176.013V306.947H185.912Z" fill="white"/>
<path d="M205.094 303H191.812V327.451H196.11V317.845H202.628C203.156 317.845 203.403 318.125 203.403 318.649V327.451H207.701V318.09C207.701 316.972 207.102 316.134 205.869 315.889C207.102 315.575 207.701 314.771 207.701 313.654V305.515C207.701 304.083 206.609 303 205.094 303ZM203.403 307.646V313.095C203.403 313.619 203.156 313.898 202.628 313.898H196.11V306.947H202.734C203.227 306.947 203.403 307.192 203.403 307.646Z" fill="white"/>
<path d="M226.588 303V318.998L218.838 303H213.905V327.451H218.133V311.348L225.954 327.451H230.816V303H226.588Z" fill="white"/>
<path d="M269.357 303L266.785 320.43L263.297 306.074H259.387L255.899 320.43L253.327 303H248.571L252.764 327.451H258.435L261.36 315.121L264.248 327.451H269.92L274.113 303H269.357Z" fill="white"/>
<path d="M293.247 306.947V303H279.049V327.451H293.247V323.504H283.347V317.182H290.745V313.2H283.347V306.947H293.247Z" fill="white"/>
<path d="M312.393 303H299.147V327.451H312.393C313.943 327.451 315 326.333 315 324.936V317.321C315 316.204 314.436 315.365 313.168 315.121C314.436 314.841 315 314.003 315 312.885V305.515C315 304.083 313.943 303 312.393 303ZM310.702 307.646V312.326C310.702 312.885 310.455 313.13 309.927 313.13H303.445V306.947H310.033C310.526 306.947 310.702 307.192 310.702 307.646ZM310.702 317.88V322.805C310.702 323.259 310.526 323.504 310.033 323.504H303.445V317.112H309.927C310.455 317.112 310.702 317.356 310.702 317.88Z" fill="white"/>
<path d="M99.8972 74.9139V70.6999C99.8972 70.3919 99.8412 70.0839 99.6592 69.8179C99.4772 69.5939 98.9452 68.9919 98.6372 68.8099C98.3992 68.6699 98.0492 68.5439 97.7132 68.5439H95.5852C95.2352 68.5439 94.8992 68.6699 94.6612 68.8099C94.3532 68.9919 93.8072 69.5939 93.6392 69.8179C93.4572 70.0839 93.4012 70.3919 93.4012 70.6999V74.9139C93.4012 75.2079 93.4572 75.5159 93.6392 75.7819C93.8072 76.0199 94.3532 76.6219 94.6612 76.8039C94.8992 76.9439 95.2352 77.0699 95.5852 77.0699H97.7132C98.0492 77.0699 98.3992 76.9439 98.6372 76.8039C98.9452 76.6219 99.4772 76.0199 99.6592 75.7819C99.8412 75.5159 99.8972 75.2079 99.8972 74.9139ZM98.1892 74.9139C98.0352 75.1099 97.7832 75.3479 97.6712 75.4319H95.6132C95.5012 75.3619 95.2632 75.1239 95.1092 74.9139V70.7139C95.2772 70.4759 95.5152 70.2659 95.6272 70.1819H97.6852C97.8252 70.2659 98.0912 70.5319 98.1892 70.6999V74.9139Z" fill="white"/>
<path d="M113.71 76.9999V68.5999H112.002V73.6119L109.314 68.5999H107.564V76.9999H109.272V72.0579L111.988 76.9999H113.71Z" fill="white"/>
<path d="M126.885 76.9999V75.3479H123.161V68.5999H121.453V76.9999H126.885Z" fill="white"/>
<path d="M135.793 76.9999V68.5999H134.071V76.9999H135.793Z" fill="white"/>
<path d="M149.729 76.9999V68.5999H148.021V73.6119L145.333 68.5999H143.583V76.9999H145.291V72.0579L148.007 76.9999H149.729Z" fill="white"/>
<path d="M162.988 76.9999V75.3619H159.18V73.5979H162.862V71.9599H159.18V70.2379H162.988V68.5999H157.472V76.9999H162.988Z" fill="white"/>
<path d="M186.69 74.3539V72.7859H184.604V75.0819C184.506 75.2639 184.268 75.4179 184.212 75.4179H182.098C182.07 75.4179 181.846 75.2359 181.734 75.0679V73.9899C181.846 73.8219 182.07 73.6259 182.098 73.6259H183.624V72.0439H182.098C182.042 72.0439 181.832 71.8479 181.734 71.6519V70.5739C181.846 70.3919 182.07 70.1819 182.098 70.1819H183.302C183.456 70.2519 183.708 70.2939 183.946 70.7699L185.5 70.3359C185.416 70.1119 185.304 69.9299 185.178 69.7339C184.884 69.2719 184.254 68.5439 183.344 68.5439H182.098C181.692 68.5439 181.328 68.7119 181.048 68.9079C180.852 69.0479 180.446 69.4399 180.306 69.6499C180.138 69.9019 180.026 70.2659 180.026 70.5739V71.6379C180.026 72.1979 180.264 72.5199 180.53 72.8139C180.278 73.0799 180.026 73.4579 180.026 73.9899V75.0679C180.026 75.4039 180.124 75.7259 180.306 75.9779C180.432 76.1739 180.838 76.5939 181.048 76.7479C181.328 76.9439 181.748 77.0699 182.098 77.0699H184.212C184.562 77.0699 184.996 76.9439 185.276 76.7479C185.486 76.6079 185.892 76.1739 186.032 75.9779C186.2 75.7259 186.312 75.3899 186.312 75.0679V74.3539H186.69Z" fill="white"/>
<path d="M213.001 68.5999H211.181C210.817 70.2939 210.453 72.0719 210.089 73.7799L208.871 68.5999H207.135C206.743 70.2939 206.309 72.0719 205.917 73.7799L204.811 68.5999H203.047L204.965 76.9999H206.799C207.191 75.3759 207.611 73.7099 208.003 72.0859L209.221 76.9999H211.055L213.001 68.5999Z" fill="white"/>
<path d="M226.479 74.9139V70.6999C226.479 70.3919 226.423 70.0839 226.241 69.8179C226.059 69.5939 225.527 68.9919 225.219 68.8099C224.981 68.6699 224.631 68.5439 224.295 68.5439H222.167C221.817 68.5439 221.481 68.6699 221.243 68.8099C220.935 68.9919 220.389 69.5939 220.221 69.8179C220.039 70.0839 219.983 70.3919 219.983 70.6999V74.9139C219.983 75.2079 220.039 75.5159 220.221 75.7819C220.389 76.0199 220.935 76.6219 221.243 76.8039C221.481 76.9439 221.817 77.0699 222.167 77.0699H224.295C224.631 77.0699 224.981 76.9439 225.219 76.8039C225.527 76.6219 226.059 76.0199 226.241 75.7819C226.423 75.5159 226.479 75.2079 226.479 74.9139ZM224.771 74.9139C224.617 75.1099 224.365 75.3479 224.253 75.4319H222.195C222.083 75.3619 221.845 75.1239 221.691 74.9139V70.7139C221.859 70.4759 222.097 70.2659 222.209 70.1819H224.267C224.407 70.2659 224.673 70.5319 224.771 70.6999V74.9139Z" fill="white"/>
<path d="M240.306 71.8059V70.6159C240.306 70.3079 240.222 69.9439 240.04 69.6919C239.9 69.5099 239.48 69.0759 239.284 68.9219C239.018 68.7259 238.584 68.5999 238.234 68.5999H234.146V76.9999H235.854V73.7939H237.198L238.864 76.9999H240.768C240.768 76.9999 239.634 74.9279 238.948 73.6679C239.06 73.6119 239.172 73.5559 239.284 73.4719C239.48 73.3319 239.914 72.9119 240.04 72.7159C240.222 72.4499 240.306 72.1419 240.306 71.8059ZM238.598 71.8199C238.514 71.9599 238.276 72.1559 238.234 72.1559H235.854V70.2379H238.234C238.374 70.3079 238.528 70.4619 238.598 70.5739V71.8199Z" fill="white"/>
<path d="M253.494 76.9999V75.3479H249.77V68.5999H248.062V76.9999H253.494Z" fill="white"/>
<path d="M266.855 74.8859V70.7419C266.855 70.4479 266.813 70.1539 266.617 69.8739C266.449 69.6499 265.931 69.0479 265.623 68.8519C265.357 68.6839 264.993 68.5999 264.699 68.5999H260.625V76.9999H264.699C265.021 76.9999 265.357 76.8599 265.595 76.7339C265.903 76.5519 266.435 76.0199 266.631 75.7399C266.799 75.4739 266.855 75.1379 266.855 74.8859ZM265.146 74.8299C265.006 75.0959 264.825 75.2499 264.629 75.3619H262.333V70.2379H264.629C264.839 70.3639 265.02 70.5039 265.146 70.8119V74.8299Z" fill="white"/>
<path d="M283.907 68.5999H282.087C281.723 70.2939 281.359 72.0719 280.995 73.7799L279.777 68.5999H278.041C277.649 70.2939 277.215 72.0719 276.823 73.7799L275.717 68.5999H273.953L275.871 76.9999H277.705C278.097 75.3759 278.517 73.7099 278.909 72.0859L280.127 76.9999H281.961L283.907 68.5999Z" fill="white"/>
<path d="M292.695 76.9999V68.5999H290.973V76.9999H292.695Z" fill="white"/>
<path d="M306.716 74.8859V70.7419C306.716 70.4479 306.674 70.1539 306.478 69.8739C306.31 69.6499 305.792 69.0479 305.484 68.8519C305.218 68.6839 304.854 68.5999 304.56 68.5999H300.486V76.9999H304.56C304.882 76.9999 305.218 76.8599 305.456 76.7339C305.764 76.5519 306.296 76.0199 306.492 75.7399C306.66 75.4739 306.716 75.1379 306.716 74.8859ZM305.008 74.8299C304.868 75.0959 304.686 75.2499 304.49 75.3619H302.194V70.2379H304.49C304.7 70.3639 304.882 70.5039 305.008 70.8119V74.8299Z" fill="white"/>
<path d="M319.904 76.9999V75.3619H316.096V73.5979H319.778V71.9599H316.096V70.2379H319.904V68.5999H314.388V76.9999H319.904Z" fill="white"/>
<path d="M100.023 94.9999V86.5999H98.1754C97.5594 87.8459 96.9434 89.1479 96.3274 90.4079L94.4514 86.5999H92.5894V94.9999H94.2974V89.9599L95.7394 92.9979H96.8594C97.3354 91.9899 97.8394 90.9679 98.3154 89.9459V94.9999H100.023Z" fill="white"/>
<path d="M114.819 94.9999L111.921 86.5999H110.031L107.119 94.9999H108.939C109.121 94.4819 109.331 93.9079 109.513 93.3899H112.439L112.999 94.9999H114.819ZM111.921 91.7519H110.031C110.339 90.8559 110.661 89.9459 110.969 89.0499L111.921 91.7519Z" fill="white"/>
<path d="M128.072 89.8059V88.6159C128.072 88.3079 127.988 87.9439 127.806 87.6919C127.666 87.5099 127.246 87.0759 127.05 86.9219C126.784 86.7259 126.35 86.5999 126 86.5999H121.912V94.9999H123.62V91.7939H124.964L126.63 94.9999H128.534C128.534 94.9999 127.4 92.9279 126.714 91.6679C126.826 91.6119 126.938 91.5559 127.05 91.4719C127.246 91.3319 127.68 90.9119 127.806 90.7159C127.988 90.4499 128.072 90.1419 128.072 89.8059ZM126.364 89.8199C126.28 89.9599 126.042 90.1559 126 90.1559H123.62V88.2379H126C126.14 88.3079 126.294 88.4619 126.364 88.5739V89.8199Z" fill="white"/>
<path d="M142.142 88.6159C142.03 88.3219 141.89 88.0279 141.666 87.7199C141.33 87.2579 140.686 86.5439 139.832 86.5439H137.998C137.662 86.5439 137.312 86.6839 137.088 86.8099C136.766 87.0059 136.22 87.5939 136.052 87.8179C135.87 88.0839 135.814 88.3779 135.814 88.6859V92.9279C135.814 93.2079 135.884 93.5299 136.052 93.7959C136.248 94.0619 136.78 94.6219 137.074 94.8039C137.312 94.9439 137.662 95.0699 137.998 95.0699H139.832C140.686 95.0699 141.344 94.3559 141.68 93.8799C141.862 93.6279 142.03 93.3339 142.156 92.9839L140.56 92.5919C140.364 92.9419 140.14 93.2359 139.846 93.4319H138.068C137.732 93.2359 137.522 92.9279 137.522 92.9139V88.7419C137.648 88.5459 137.928 88.2799 138.068 88.1819H139.818C140.21 88.4479 140.378 88.6859 140.56 89.0639L142.142 88.6159Z" fill="white"/>
<path d="M155.809 94.9999V86.5999H154.101V89.9739H151.301V86.5999H149.593V94.9999H151.301V91.6119H154.101V94.9999H155.809Z" fill="white"/>
<path d="M174.958 88.1819H176.54C176.582 88.1819 176.778 88.3499 176.876 88.5319V89.3999C176.876 89.4559 176.848 89.5119 176.792 89.5399C175.854 90.0019 174.874 90.4779 173.936 90.9399C173.334 91.2339 172.844 91.7939 172.844 92.5219V94.9999H178.472V93.3619H174.552V92.5639C174.552 92.4939 174.608 92.4799 174.678 92.4379C175.616 91.9759 176.568 91.5139 177.506 91.0519C178.08 90.7719 178.584 90.2119 178.584 89.4419V88.5599C178.584 88.4339 178.556 87.9439 178.332 87.6499C178.178 87.4539 177.772 87.0199 177.562 86.8799C177.282 86.6839 176.89 86.5439 176.54 86.5439H174.93C174.076 86.5439 173.418 87.2579 173.082 87.7059C172.956 87.8739 172.844 88.0839 172.732 88.3499L174.37 88.7559C174.468 88.5179 174.804 88.2659 174.958 88.1819Z" fill="white"/>
<path d="M188.177 88.1819H189.759C189.801 88.1819 189.997 88.3499 190.095 88.5319V89.3999C190.095 89.4559 190.067 89.5119 190.011 89.5399C189.073 90.0019 188.093 90.4779 187.155 90.9399C186.553 91.2339 186.063 91.7939 186.063 92.5219V94.9999H191.691V93.3619H187.771V92.5639C187.771 92.4939 187.827 92.4799 187.897 92.4379C188.835 91.9759 189.787 91.5139 190.725 91.0519C191.299 90.7719 191.803 90.2119 191.803 89.4419V88.5599C191.803 88.4339 191.775 87.9439 191.551 87.6499C191.397 87.4539 190.991 87.0199 190.781 86.8799C190.501 86.6839 190.109 86.5439 189.759 86.5439H188.149C187.295 86.5439 186.637 87.2579 186.301 87.7059C186.175 87.8739 186.063 88.0839 185.951 88.3499L187.589 88.7559C187.687 88.5179 188.023 88.2659 188.177 88.1819Z" fill="white"/>
<path d="M212.327 92.3259V90.7439H208.701V92.3259H212.327Z" fill="white"/>
<path d="M231.468 88.1819H233.05C233.092 88.1819 233.288 88.3499 233.386 88.5319V89.3999C233.386 89.4559 233.358 89.5119 233.302 89.5399C232.364 90.0019 231.384 90.4779 230.446 90.9399C229.844 91.2339 229.354 91.7939 229.354 92.5219V94.9999H234.982V93.3619H231.062V92.5639C231.062 92.4939 231.118 92.4799 231.188 92.4379C232.126 91.9759 233.078 91.5139 234.016 91.0519C234.59 90.7719 235.094 90.2119 235.094 89.4419V88.5599C235.094 88.4339 235.066 87.9439 234.842 87.6499C234.688 87.4539 234.282 87.0199 234.072 86.8799C233.792 86.6839 233.4 86.5439 233.05 86.5439H231.44C230.586 86.5439 229.928 87.2579 229.592 87.7059C229.466 87.8739 229.354 88.0839 229.242 88.3499L230.88 88.7559C230.978 88.5179 231.314 88.2659 231.468 88.1819Z" fill="white"/>
<path d="M242.39 88.5739V93.0679C242.39 93.3899 242.474 93.7119 242.656 93.9639C242.782 94.1599 243.216 94.5799 243.426 94.7339C243.706 94.9299 244.098 95.0699 244.448 95.0699H246.226C246.576 95.0699 246.968 94.9299 247.248 94.7339C247.458 94.5659 247.892 94.1599 248.018 93.9639C248.186 93.7119 248.284 93.3619 248.284 93.0539V91.4579C248.284 91.1359 248.2 90.8139 248.018 90.5479C247.892 90.3519 247.444 89.9179 247.248 89.7779C246.954 89.5679 246.59 89.4699 246.226 89.4699H244.728C244.56 89.4699 244.35 89.5819 244.182 89.6799C244.154 89.6939 244.126 89.7219 244.098 89.7359V88.5319C244.224 88.3499 244.42 88.1819 244.462 88.1819H246.016C246.212 88.2519 246.45 88.4619 246.604 88.8119L248.256 88.3639C248.144 88.0979 248.018 87.8879 247.906 87.7199C247.584 87.2299 246.898 86.5439 246.058 86.5439H244.448C244.098 86.5439 243.706 86.6699 243.426 86.8659C243.202 87.0199 242.782 87.4679 242.656 87.6499C242.474 87.9159 242.39 88.2519 242.39 88.5739ZM244.098 91.5139C244.21 91.3319 244.378 91.1919 244.462 91.1219C244.518 91.0939 244.602 91.0939 244.63 91.0939H246.198C246.254 91.0939 246.478 91.2899 246.576 91.4719V93.0959C246.464 93.2779 246.268 93.4319 246.226 93.4319H244.462C244.42 93.4319 244.196 93.2499 244.098 93.0679V91.5139Z" fill="white"/>
<path d="M258.423 93.7259L256.813 93.2359L255.441 96.1619H257.303L258.423 93.7259Z" fill="white"/>
<path d="M277.63 88.1819H279.212C279.254 88.1819 279.45 88.3499 279.548 88.5319V89.3999C279.548 89.4559 279.52 89.5119 279.464 89.5399C278.526 90.0019 277.546 90.4779 276.608 90.9399C276.006 91.2339 275.516 91.7939 275.516 92.5219V94.9999H281.144V93.3619H277.224V92.5639C277.224 92.4939 277.28 92.4799 277.35 92.4379C278.288 91.9759 279.24 91.5139 280.178 91.0519C280.752 90.7719 281.256 90.2119 281.256 89.4419V88.5599C281.256 88.4339 281.228 87.9439 281.004 87.6499C280.85 87.4539 280.444 87.0199 280.234 86.8799C279.954 86.6839 279.562 86.5439 279.212 86.5439H277.602C276.748 86.5439 276.09 87.2579 275.754 87.7059C275.628 87.8739 275.516 88.0839 275.404 88.3499L277.042 88.7559C277.14 88.5179 277.476 88.2659 277.63 88.1819Z" fill="white"/>
<path d="M294.559 92.9139V88.6999C294.559 88.3919 294.503 88.0839 294.321 87.8179C294.153 87.5939 293.621 87.0059 293.285 86.8099H293.299C293.061 86.6699 292.725 86.5439 292.389 86.5439H290.737C290.387 86.5439 290.051 86.6699 289.813 86.8099C289.505 86.9919 288.959 87.5939 288.791 87.8179C288.609 88.0839 288.553 88.3919 288.553 88.6999V92.9139C288.553 93.2079 288.609 93.5159 288.791 93.7819C288.959 94.0199 289.505 94.6219 289.813 94.8039C290.051 94.9439 290.387 95.0699 290.737 95.0699H292.389C292.725 95.0699 293.061 94.9439 293.299 94.8039H293.285C293.621 94.6079 294.153 94.0199 294.321 93.7819C294.503 93.5159 294.559 93.2079 294.559 92.9139ZM292.851 92.9139C292.697 93.1379 292.459 93.3619 292.347 93.4319H290.765C290.639 93.3619 290.401 93.1239 290.261 92.9139V88.7139C290.429 88.4759 290.667 88.2659 290.779 88.1819H292.361C292.501 88.2659 292.753 88.5179 292.851 88.6999V92.9139Z" fill="white"/>
<path d="M304.067 88.1819H305.649C305.691 88.1819 305.887 88.3499 305.985 88.5319V89.3999C305.985 89.4559 305.957 89.5119 305.901 89.5399C304.963 90.0019 303.983 90.4779 303.045 90.9399C302.443 91.2339 301.953 91.7939 301.953 92.5219V94.9999H307.581V93.3619H303.661V92.5639C303.661 92.4939 303.717 92.4799 303.787 92.4379C304.725 91.9759 305.677 91.5139 306.615 91.0519C307.189 90.7719 307.693 90.2119 307.693 89.4419V88.5599C307.693 88.4339 307.665 87.9439 307.441 87.6499C307.287 87.4539 306.881 87.0199 306.671 86.8799C306.391 86.6839 305.999 86.5439 305.649 86.5439H304.039C303.185 86.5439 302.527 87.2579 302.191 87.7059C302.065 87.8739 301.953 88.0839 301.841 88.3499L303.479 88.7559C303.577 88.5179 303.913 88.2659 304.067 88.1819Z" fill="white"/>
<path d="M319.316 94.9999V86.5999H316.082V88.2659H317.594V94.9999H319.316Z" fill="white"/>
<defs>
<filter id="filter0_d" x="0" y="0" width="415" height="327" filterUnits="userSpaceOnUse" color-interpolation-filters="sRGB">
<feFlood flood-opacity="0" result="BackgroundImageFix"/>
<feColorMatrix in="SourceAlpha" type="matrix" values="0 0 0 0 0 0 0 0 0 0 0 0 0 0 0 0 0 0 127 0"/>
<feOffset dy="-20"/>
<feGaussianBlur stdDeviation="10"/>
<feColorMatrix type="matrix" values="0 0 0 0 0 0 0 0 0 0 0 0 0 0 0 0 0 0 0.2 0"/>
<feBlend mode="normal" in2="BackgroundImageFix" result="effect1_dropShadow"/>
<feBlend mode="normal" in="SourceGraphic" in2="effect1_dropShadow" result="shape"/>
</filter>
</defs>
</svg>
