<svg width="415" height="388" viewBox="0 0 415 388" fill="none" xmlns="http://www.w3.org/2000/svg">
<g filter="url(#filter0_d)">
<rect x="20" y="40" width="375" height="287" fill="#191919"/>
</g>
<mask id="mask0" mask-type="alpha" maskUnits="userSpaceOnUse" x="146" y="120" width="124" height="143">
<path d="M207.672 120L269.343 155.606V226.819L207.672 262.425L146 226.819V155.606L207.672 120Z" fill="white"/>
</mask>
<g mask="url(#mask0)">
<path d="M159.625 119.142H145.897V263.283H159.625V119.142Z" fill="white"/>
<path d="M187.08 119.142H173.353V263.283H187.08V119.142Z" fill="white"/>
<path d="M214.536 119.142H200.808V263.283H214.536V119.142Z" fill="white"/>
<path d="M209.17 134.524L202.306 122.635L77.4762 194.706L84.34 206.594L209.17 134.524Z" fill="white"/>
<path d="M333.577 190.293L326.713 178.404L201.883 250.475L208.747 262.363L333.577 190.293Z" fill="white"/>
<path d="M241.991 119.142H228.263V263.283H241.991V119.142Z" fill="white"/>
<path d="M269.446 119.142H255.719V263.283H269.446V119.142Z" fill="white"/>
</g>
<path d="M141.441 350.151C140.672 348.427 139.711 346.703 138.173 344.897C135.866 342.187 131.445 338 125.583 338H112.993C110.686 338 108.284 338.821 106.746 339.56C104.535 340.709 100.787 344.158 99.6338 345.471C98.3844 347.031 98 348.755 98 350.562V375.438C98 377.08 98.4805 378.969 99.6338 380.529C100.979 382.089 104.631 385.373 106.65 386.44C108.284 387.261 110.686 388 112.993 388H125.583C131.445 388 135.963 383.813 138.269 381.021C139.518 379.544 140.672 377.819 141.537 375.767L130.58 373.468C129.235 375.521 127.697 377.245 125.679 378.394H113.473C111.167 377.245 109.725 375.438 109.725 375.356V350.89C110.59 349.741 112.512 348.181 113.473 347.606H125.487C128.178 349.166 129.331 350.562 130.58 352.778L141.441 350.151Z" fill="black"/>
<path d="M200.384 375.356V350.644C200.384 348.837 200 347.031 198.75 345.471C197.501 344.158 193.849 340.627 191.734 339.56C190.101 338.739 187.698 338 185.391 338H170.783C168.38 338 166.074 338.739 164.44 339.56C162.325 340.627 158.577 344.158 157.424 345.471C156.175 347.031 155.79 348.837 155.79 350.644V375.356C155.79 377.08 156.175 378.887 157.424 380.447C158.577 381.842 162.325 385.373 164.44 386.44C166.074 387.261 168.38 388 170.783 388H185.391C187.698 388 190.101 387.261 191.734 386.44C193.849 385.373 197.501 381.842 198.75 380.447C200 378.887 200.384 377.08 200.384 375.356ZM188.659 375.356C187.602 376.506 185.872 377.901 185.103 378.394H170.975C170.206 377.984 168.572 376.588 167.515 375.356V350.726C168.669 349.33 170.302 348.099 171.071 347.606H185.199C186.16 348.099 187.986 349.658 188.659 350.644V375.356Z" fill="black"/>
<path d="M258.594 387.589V338.328H246.869V367.721L228.416 338.328H216.403V387.589H228.128V358.608L246.773 387.589H258.594Z" fill="black"/>
<path d="M313 347.934V338.328H275.134V387.589H286.859V367.639H311.654V358.033H286.859V347.934H313Z" fill="black"/>
<path d="M121.596 303H115.571L110.71 317.636L105.848 303H100V327.451H104.298V310.894L108.878 324.377H112.577L117.298 310.405V327.451H121.596V303Z" fill="white"/>
<path d="M140.98 303H130.341C128.826 303 127.734 304.083 127.734 305.515V324.936C127.734 326.333 128.826 327.451 130.341 327.451H140.98C142.53 327.451 143.587 326.333 143.587 324.936V305.515C143.587 304.083 142.53 303 140.98 303ZM139.289 307.646V322.805C139.289 323.259 139.113 323.504 138.619 323.504H132.701C132.208 323.504 132.032 323.259 132.032 322.805V307.646C132.032 307.192 132.208 306.947 132.701 306.947H138.619C139.113 306.947 139.289 307.192 139.289 307.646Z" fill="white"/>
<path d="M162.971 303H149.725V327.451H162.971C164.521 327.451 165.578 326.333 165.578 324.936V305.515C165.578 304.083 164.521 303 162.971 303ZM161.28 307.646V322.805C161.28 323.259 161.104 323.504 160.611 323.504H154.023V306.947H160.611C161.104 306.947 161.28 307.192 161.28 307.646Z" fill="white"/>
<path d="M185.912 306.947V303H171.715V327.451H185.912V323.504H176.013V317.182H183.411V313.2H176.013V306.947H185.912Z" fill="white"/>
<path d="M205.094 303H191.812V327.451H196.11V317.845H202.628C203.156 317.845 203.403 318.125 203.403 318.649V327.451H207.701V318.09C207.701 316.972 207.102 316.134 205.869 315.889C207.102 315.575 207.701 314.771 207.701 313.654V305.515C207.701 304.083 206.609 303 205.094 303ZM203.403 307.646V313.095C203.403 313.619 203.156 313.898 202.628 313.898H196.11V306.947H202.734C203.227 306.947 203.403 307.192 203.403 307.646Z" fill="white"/>
<path d="M226.588 303V318.998L218.838 303H213.905V327.451H218.133V311.348L225.954 327.451H230.816V303H226.588Z" fill="white"/>
<path d="M269.357 303L266.785 320.43L263.297 306.074H259.387L255.899 320.43L253.327 303H248.571L252.764 327.451H258.435L261.36 315.121L264.248 327.451H269.92L274.113 303H269.357Z" fill="white"/>
<path d="M293.247 306.947V303H279.049V327.451H293.247V323.504H283.347V317.182H290.745V313.2H283.347V306.947H293.247Z" fill="white"/>
<path d="M312.393 303H299.147V327.451H312.393C313.943 327.451 315 326.333 315 324.936V317.321C315 316.204 314.436 315.365 313.168 315.121C314.436 314.841 315 314.003 315 312.885V305.515C315 304.083 313.943 303 312.393 303ZM310.702 307.646V312.326C310.702 312.885 310.455 313.13 309.927 313.13H303.445V306.947H310.033C310.526 306.947 310.702 307.192 310.702 307.646ZM310.702 317.88V322.805C310.702 323.259 310.526 323.504 310.033 323.504H303.445V317.112H309.927C310.455 317.112 310.702 317.356 310.702 317.88Z" fill="white"/>
<path d="M99.0557 74.8725V70.9876C99.0557 70.7037 99.0035 70.4197 98.8339 70.1745C98.6642 69.968 98.1683 69.413 97.8811 69.2452C97.6593 69.1162 97.333 69 97.0198 69H95.036C94.7097 69 94.3965 69.1162 94.1746 69.2452C93.8875 69.413 93.3785 69.968 93.2219 70.1745C93.0522 70.4197 93 70.7037 93 70.9876V74.8725C93 75.1435 93.0522 75.4275 93.2219 75.6727C93.3785 75.8921 93.8875 76.4471 94.1746 76.6149C94.3965 76.7439 94.7097 76.8601 95.036 76.8601H97.0198C97.333 76.8601 97.6593 76.7439 97.8811 76.6149C98.1683 76.4471 98.6642 75.8921 98.8339 75.6727C99.0035 75.4275 99.0557 75.1435 99.0557 74.8725ZM97.4635 74.8725C97.3199 75.0532 97.085 75.2726 96.9806 75.35H95.0621C94.9577 75.2855 94.7358 75.0661 94.5922 74.8725V71.0005C94.7489 70.7811 94.9707 70.5875 95.0751 70.5101H96.9937C97.1242 70.5875 97.3721 70.8327 97.4635 70.9876V74.8725Z" fill="white"/>
<path d="M112.865 76.7956V69.0516H111.272V73.6722L108.767 69.0516H107.135V76.7956H108.727V72.2395L111.259 76.7956H112.865Z" fill="white"/>
<path d="M126.079 76.7956V75.2726H122.607V69.0516H121.015V76.7956H126.079Z" fill="white"/>
<path d="M135.316 76.7956V69.0516H133.71V76.7956H135.316Z" fill="white"/>
<path d="M149.24 76.7956V69.0516H147.647V73.6722L145.142 69.0516H143.51V76.7956H145.102V72.2395L147.634 76.7956H149.24Z" fill="white"/>
<path d="M162.532 76.7956V75.2855H158.982V73.6593H162.415V72.1492H158.982V70.5617H162.532V69.0516H157.39V76.7956H162.532Z" fill="white"/>
<path d="M186.492 74.3562V72.9107H184.547V75.0274C184.456 75.1951 184.234 75.3371 184.182 75.3371H182.211C182.185 75.3371 181.976 75.1693 181.872 75.0145V74.0207C181.976 73.8658 182.185 73.6851 182.211 73.6851H183.634V72.2266H182.211C182.159 72.2266 181.963 72.0459 181.872 71.8653V70.8715C181.976 70.7037 182.185 70.5101 182.211 70.5101H183.334C183.477 70.5746 183.712 70.6133 183.934 71.0521L185.383 70.652C185.304 70.4455 185.2 70.2777 185.083 70.0971C184.808 69.6711 184.221 69 183.373 69H182.211C181.833 69 181.493 69.1549 181.232 69.3356C181.05 69.4646 180.671 69.826 180.541 70.0196C180.384 70.2519 180.28 70.5875 180.28 70.8715V71.8523C180.28 72.3686 180.502 72.6655 180.75 72.9365C180.515 73.1817 180.28 73.5302 180.28 74.0207V75.0145C180.28 75.3242 180.371 75.6211 180.541 75.8534C180.658 76.0341 181.037 76.4213 181.232 76.5632C181.493 76.7439 181.885 76.8601 182.211 76.8601H184.182C184.508 76.8601 184.913 76.7439 185.174 76.5632C185.37 76.4342 185.748 76.0341 185.879 75.8534C186.035 75.6211 186.14 75.3113 186.14 75.0145V74.3562H186.492Z" fill="white"/>
<path d="M212.884 69.0516H211.187C210.848 70.6133 210.508 72.2525 210.169 73.8271L209.034 69.0516H207.415C207.05 70.6133 206.645 72.2525 206.28 73.8271L205.249 69.0516H203.604L205.392 76.7956H207.102C207.468 75.2984 207.859 73.7625 208.225 72.2654L209.36 76.7956H211.07L212.884 69.0516Z" fill="white"/>
<path d="M226.381 74.8725V70.9876C226.381 70.7037 226.329 70.4197 226.159 70.1745C225.99 69.968 225.494 69.413 225.207 69.2452C224.985 69.1162 224.658 69 224.345 69H222.361C222.035 69 221.722 69.1162 221.5 69.2452C221.213 69.413 220.704 69.968 220.547 70.1745C220.378 70.4197 220.325 70.7037 220.325 70.9876V74.8725C220.325 75.1435 220.378 75.4275 220.547 75.6727C220.704 75.8921 221.213 76.4471 221.5 76.6149C221.722 76.7439 222.035 76.8601 222.361 76.8601H224.345C224.658 76.8601 224.985 76.7439 225.207 76.6149C225.494 76.4471 225.99 75.8921 226.159 75.6727C226.329 75.4275 226.381 75.1435 226.381 74.8725ZM224.789 74.8725C224.645 75.0532 224.41 75.2726 224.306 75.35H222.388C222.283 75.2855 222.061 75.0661 221.918 74.8725V71.0005C222.074 70.7811 222.296 70.5875 222.401 70.5101H224.319C224.45 70.5875 224.698 70.8327 224.789 70.9876V74.8725Z" fill="white"/>
<path d="M240.203 72.0072V70.9102C240.203 70.6262 240.125 70.2907 239.955 70.0583C239.825 69.8906 239.433 69.4904 239.25 69.3485C239.002 69.1678 238.598 69.0516 238.271 69.0516H234.461V76.7956H236.053V73.84H237.306L238.859 76.7956H240.634C240.634 76.7956 239.577 74.8854 238.937 73.7238C239.042 73.6722 239.146 73.6205 239.25 73.5431C239.433 73.414 239.838 73.0268 239.955 72.8462C240.125 72.6009 240.203 72.317 240.203 72.0072ZM238.611 72.0201C238.533 72.1492 238.311 72.3299 238.271 72.3299H236.053V70.5617H238.271C238.402 70.6262 238.546 70.7682 238.611 70.8715V72.0201Z" fill="white"/>
<path d="M253.43 76.7956V75.2726H249.958V69.0516H248.366V76.7956H253.43Z" fill="white"/>
<path d="M266.817 74.8467V71.0263C266.817 70.7553 266.778 70.4843 266.595 70.2261C266.438 70.0196 265.955 69.4646 265.668 69.2839C265.42 69.1291 265.081 69.0516 264.807 69.0516H261.009V76.7956H264.807C265.107 76.7956 265.42 76.6665 265.642 76.5503C265.929 76.3826 266.425 75.8921 266.608 75.634C266.765 75.3887 266.817 75.079 266.817 74.8467ZM265.225 74.795C265.094 75.0403 264.924 75.1822 264.742 75.2855H262.601V70.5617H264.742C264.937 70.6779 265.107 70.8069 265.225 71.0909V74.795Z" fill="white"/>
<path d="M283.646 69.0516H281.949C281.61 70.6133 281.27 72.2525 280.931 73.8271L279.796 69.0516H278.177C277.812 70.6133 277.407 72.2525 277.042 73.8271L276.011 69.0516H274.366L276.154 76.7956H277.864C278.229 75.2984 278.621 73.7625 278.986 72.2654L280.122 76.7956H281.832L283.646 69.0516Z" fill="white"/>
<path d="M292.771 76.7956V69.0516H291.166V76.7956H292.771Z" fill="white"/>
<path d="M306.773 74.8467V71.0263C306.773 70.7553 306.734 70.4843 306.551 70.2261C306.395 70.0196 305.912 69.4646 305.625 69.2839C305.377 69.1291 305.037 69.0516 304.763 69.0516H300.965V76.7956H304.763C305.064 76.7956 305.377 76.6665 305.599 76.5503C305.886 76.3826 306.382 75.8921 306.564 75.634C306.721 75.3887 306.773 75.079 306.773 74.8467ZM305.181 74.795C305.05 75.0403 304.881 75.1822 304.698 75.2855H302.558V70.5617H304.698C304.894 70.6779 305.064 70.8069 305.181 71.0909V74.795Z" fill="white"/>
<path d="M320 76.7956V75.2855H316.45V73.6593H319.883V72.1492H316.45V70.5617H320V69.0516H314.858V76.7956H320Z" fill="white"/>
<path d="M138.029 92.9288V85.1848H136.306C135.732 86.3335 135.157 87.5338 134.583 88.6954L132.834 85.1848H131.098V92.9288H132.691V88.2824L134.035 91.0831H135.079C135.523 90.1538 135.993 89.2117 136.436 88.2695V92.9288H138.029Z" fill="white"/>
<path d="M150.578 92.9288L147.876 85.1848H146.115L143.4 92.9288H145.097C145.266 92.4512 145.462 91.922 145.632 91.4445H148.359L148.881 92.9288H150.578ZM147.876 89.9344H146.115C146.402 89.1084 146.702 88.2695 146.989 87.4435L147.876 89.9344Z" fill="white"/>
<path d="M161.301 85.1848H159.5L157.843 87.9081L156.211 85.1848H154.41L157.034 89.573V92.9288H158.639V89.573L161.301 85.1848Z" fill="white"/>
<path d="M177.801 92.9288V85.1848H174.787V86.7207H176.196V92.9288H177.801Z" fill="white"/>
<path d="M190.461 86.3722V85.1848H185.083V86.6949H188.581L185.41 92.9288H187.224L190.461 86.3722Z" fill="white"/>
<path d="M199.531 90.4636V89.0052H196.15V90.4636H199.531Z" fill="white"/>
<path d="M207.403 86.6433H208.877C208.917 86.6433 209.099 86.7981 209.191 86.9659V87.7661C209.191 87.8178 209.165 87.8694 209.112 87.8952C208.238 88.3211 207.324 88.7599 206.45 89.1859C205.889 89.4569 205.432 89.9732 205.432 90.6443V92.9288H210.679V91.4187H207.024V90.683C207.024 90.6185 207.076 90.6056 207.142 90.5669C208.016 90.1409 208.904 89.715 209.778 89.2891C210.313 89.031 210.783 88.5147 210.783 87.8049V86.9917C210.783 86.8756 210.757 86.4238 210.548 86.1528C210.404 85.9721 210.026 85.572 209.83 85.443C209.569 85.2623 209.204 85.1332 208.877 85.1332H207.377C206.58 85.1332 205.967 85.7914 205.654 86.2044C205.536 86.3593 205.432 86.5529 205.328 86.7981L206.855 87.1724C206.946 86.953 207.259 86.7207 207.403 86.6433Z" fill="white"/>
<path d="M221.876 91.1218V90.0893C221.876 89.586 221.641 89.2633 221.419 89.0052C221.641 88.7599 221.876 88.4373 221.876 87.9468V86.9917C221.876 86.7078 221.785 86.3851 221.628 86.1528C221.484 85.9721 221.106 85.572 220.91 85.443C220.649 85.2623 220.284 85.1332 219.957 85.1332H218.313C217.987 85.1332 217.621 85.2623 217.36 85.443C217.164 85.5978 216.76 85.9721 216.642 86.1528C216.486 86.3851 216.394 86.7078 216.394 86.9917V87.9468C216.394 88.4502 216.616 88.747 216.851 89.0052C216.616 89.2504 216.394 89.5989 216.394 90.0893V91.1218C216.394 91.4058 216.486 91.7284 216.642 91.9737C216.773 92.1673 217.191 92.5674 217.36 92.6964C217.621 92.89 217.974 92.9933 218.313 92.9933H219.957C220.284 92.9933 220.649 92.8771 220.91 92.6964C221.119 92.5545 221.51 92.1415 221.628 91.9737C221.798 91.7284 221.876 91.4187 221.876 91.1218ZM220.284 91.1606C220.192 91.3283 219.983 91.4832 219.944 91.4832H218.326C218.287 91.4832 218.091 91.3283 217.987 91.1476V90.1151C218.091 89.9215 218.274 89.7666 218.313 89.7666H219.957C219.997 89.7666 220.179 89.9215 220.284 90.1151V91.1606ZM220.284 87.9597C220.192 88.1404 219.997 88.2953 219.957 88.2953H218.313C218.274 88.2953 218.078 88.1533 217.987 87.9597V86.9659C218.078 86.7981 218.287 86.6433 218.326 86.6433H219.944C219.983 86.6433 220.166 86.7981 220.284 86.9788V87.9597Z" fill="white"/>
<path d="M230.045 91.7543L228.544 91.3025L227.265 94H229.001L230.045 91.7543Z" fill="white"/>
<path d="M245.464 86.6433H246.939C246.978 86.6433 247.161 86.7981 247.252 86.9659V87.7661C247.252 87.8178 247.226 87.8694 247.174 87.8952C246.3 88.3211 245.386 88.7599 244.512 89.1859C243.95 89.4569 243.494 89.9732 243.494 90.6443V92.9288H248.74V91.4187H245.086V90.683C245.086 90.6185 245.138 90.6056 245.203 90.5669C246.078 90.1409 246.965 89.715 247.84 89.2891C248.375 89.031 248.845 88.5147 248.845 87.8049V86.9917C248.845 86.8756 248.819 86.4238 248.61 86.1528C248.466 85.9721 248.088 85.572 247.892 85.443C247.631 85.2623 247.265 85.1332 246.939 85.1332H245.438C244.642 85.1332 244.029 85.7914 243.715 86.2044C243.598 86.3593 243.494 86.5529 243.389 86.7981L244.916 87.1724C245.008 86.953 245.321 86.7207 245.464 86.6433Z" fill="white"/>
<path d="M260.003 91.0057V87.1208C260.003 86.8369 259.951 86.5529 259.781 86.3077C259.624 86.1012 259.128 85.5591 258.815 85.3784H258.828C258.606 85.2494 258.293 85.1332 257.98 85.1332H256.44C256.114 85.1332 255.8 85.2494 255.578 85.3784C255.291 85.5462 254.782 86.1012 254.626 86.3077C254.456 86.5529 254.404 86.8369 254.404 87.1208V91.0057C254.404 91.2767 254.456 91.5607 254.626 91.8059C254.782 92.0253 255.291 92.5803 255.578 92.7481C255.8 92.8771 256.114 92.9933 256.44 92.9933H257.98C258.293 92.9933 258.606 92.8771 258.828 92.7481H258.815C259.128 92.5674 259.624 92.0253 259.781 91.8059C259.951 91.5607 260.003 91.2767 260.003 91.0057ZM258.411 91.0057C258.267 91.2122 258.045 91.4187 257.941 91.4832H256.466C256.348 91.4187 256.127 91.1993 255.996 91.0057V87.1337C256.153 86.9143 256.375 86.7207 256.479 86.6433H257.954C258.084 86.7207 258.319 86.953 258.411 87.1208V91.0057Z" fill="white"/>
<path d="M267.624 86.6433H269.099C269.138 86.6433 269.321 86.7981 269.412 86.9659V87.7661C269.412 87.8178 269.386 87.8694 269.334 87.8952C268.459 88.3211 267.546 88.7599 266.671 89.1859C266.11 89.4569 265.653 89.9732 265.653 90.6443V92.9288H270.9V91.4187H267.246V90.683C267.246 90.6185 267.298 90.6056 267.363 90.5669C268.238 90.1409 269.125 89.715 269.999 89.2891C270.535 89.031 271.004 88.5147 271.004 87.8049V86.9917C271.004 86.8756 270.978 86.4238 270.769 86.1528C270.626 85.9721 270.247 85.572 270.052 85.443C269.791 85.2623 269.425 85.1332 269.099 85.1332H267.598C266.802 85.1332 266.189 85.7914 265.875 86.2044C265.758 86.3593 265.653 86.5529 265.549 86.7981L267.076 87.1724C267.167 86.953 267.481 86.7207 267.624 86.6433Z" fill="white"/>
<path d="M280.596 92.9288V85.1848H277.582V86.7207H278.991V92.9288H280.596Z" fill="white"/>
<defs>
<filter id="filter0_d" x="0" y="0" width="415" height="327" filterUnits="userSpaceOnUse" color-interpolation-filters="sRGB">
<feFlood flood-opacity="0" result="BackgroundImageFix"/>
<feColorMatrix in="SourceAlpha" type="matrix" values="0 0 0 0 0 0 0 0 0 0 0 0 0 0 0 0 0 0 127 0"/>
<feOffset dy="-20"/>
<feGaussianBlur stdDeviation="10"/>
<feColorMatrix type="matrix" values="0 0 0 0 0 0 0 0 0 0 0 0 0 0 0 0 0 0 0.2 0"/>
<feBlend mode="normal" in2="BackgroundImageFix" result="effect1_dropShadow"/>
<feBlend mode="normal" in="SourceGraphic" in2="effect1_dropShadow" result="shape"/>
</filter>
</defs>
</svg>
