<svg width="382" height="457" viewBox="0 0 382 457" fill="none" xmlns="http://www.w3.org/2000/svg">
<g filter="url(#filter0_d)">
<path d="M20 40H362V382H20V40Z" fill="#191919"/>
</g>
<path d="M91.4117 63.212V59.6C91.4117 59.336 91.3638 59.072 91.2078 58.844C91.0518 58.652 90.5958 58.136 90.3317 57.98C90.1278 57.86 89.8277 57.752 89.5398 57.752H87.7158C87.4158 57.752 87.1277 57.86 86.9237 57.98C86.6598 58.136 86.1918 58.652 86.0478 58.844C85.8918 59.072 85.8438 59.336 85.8438 59.6V63.212C85.8438 63.464 85.8918 63.728 86.0478 63.956C86.1918 64.16 86.6598 64.676 86.9237 64.832C87.1277 64.952 87.4158 65.06 87.7158 65.06H89.5398C89.8277 65.06 90.1278 64.952 90.3317 64.832C90.5958 64.676 91.0518 64.16 91.2078 63.956C91.3638 63.728 91.4117 63.464 91.4117 63.212ZM89.9478 63.212C89.8158 63.38 89.5998 63.584 89.5037 63.656H87.7397C87.6437 63.596 87.4398 63.392 87.3077 63.212V59.612C87.4518 59.408 87.6557 59.228 87.7517 59.156H89.5157C89.6357 59.228 89.8638 59.456 89.9478 59.6V63.212Z" fill="white"/>
<path d="M104.108 65V57.8H102.644V62.096L100.34 57.8H98.8404V65H100.304V60.764L102.632 65H104.108Z" fill="white"/>
<path d="M116.258 65V63.584H113.066V57.8H111.602V65H116.258Z" fill="white"/>
<path d="M124.751 65V57.8H123.275V65H124.751Z" fill="white"/>
<path d="M137.554 65V57.8H136.09V62.096L133.786 57.8H132.286V65H133.75V60.764L136.078 65H137.554Z" fill="white"/>
<path d="M149.775 65V63.596H146.511V62.084H149.667V60.68H146.511V59.204H149.775V57.8H145.047V65H149.775Z" fill="white"/>
<path d="M171.806 62.732V61.388H170.018V63.356C169.934 63.512 169.73 63.644 169.682 63.644H167.87C167.846 63.644 167.654 63.488 167.558 63.344V62.42C167.654 62.276 167.846 62.108 167.87 62.108H169.178V60.752H167.87C167.822 60.752 167.642 60.584 167.558 60.416V59.492C167.654 59.336 167.846 59.156 167.87 59.156H168.902C169.034 59.216 169.25 59.252 169.454 59.66L170.786 59.288C170.714 59.096 170.618 58.94 170.51 58.772C170.258 58.376 169.718 57.752 168.938 57.752H167.87C167.522 57.752 167.21 57.896 166.97 58.064C166.802 58.184 166.454 58.52 166.334 58.7C166.19 58.916 166.094 59.228 166.094 59.492V60.404C166.094 60.884 166.298 61.16 166.526 61.412C166.31 61.64 166.094 61.964 166.094 62.42V63.344C166.094 63.632 166.178 63.908 166.334 64.124C166.442 64.292 166.79 64.652 166.97 64.784C167.21 64.952 167.57 65.06 167.87 65.06H169.682C169.982 65.06 170.354 64.952 170.594 64.784C170.774 64.664 171.122 64.292 171.242 64.124C171.386 63.908 171.482 63.62 171.482 63.344V62.732H171.806Z" fill="white"/>
<path d="M196.072 57.8H194.512C194.2 59.252 193.888 60.776 193.576 62.24L192.532 57.8H191.044C190.708 59.252 190.336 60.776 190 62.24L189.052 57.8H187.54L189.184 65H190.756C191.092 63.608 191.452 62.18 191.788 60.788L192.832 65H194.404L196.072 57.8Z" fill="white"/>
<path d="M208.482 63.212V59.6C208.482 59.336 208.434 59.072 208.278 58.844C208.122 58.652 207.666 58.136 207.402 57.98C207.198 57.86 206.898 57.752 206.61 57.752H204.786C204.486 57.752 204.198 57.86 203.994 57.98C203.73 58.136 203.262 58.652 203.118 58.844C202.962 59.072 202.914 59.336 202.914 59.6V63.212C202.914 63.464 202.962 63.728 203.118 63.956C203.262 64.16 203.73 64.676 203.994 64.832C204.198 64.952 204.486 65.06 204.786 65.06H206.61C206.898 65.06 207.198 64.952 207.402 64.832C207.666 64.676 208.122 64.16 208.278 63.956C208.434 63.728 208.482 63.464 208.482 63.212ZM207.018 63.212C206.886 63.38 206.67 63.584 206.574 63.656H204.81C204.714 63.596 204.51 63.392 204.378 63.212V59.612C204.522 59.408 204.726 59.228 204.822 59.156H206.586C206.706 59.228 206.934 59.456 207.018 59.6V63.212Z" fill="white"/>
<path d="M221.191 60.548V59.528C221.191 59.264 221.119 58.952 220.963 58.736C220.843 58.58 220.483 58.208 220.315 58.076C220.087 57.908 219.715 57.8 219.415 57.8H215.911V65H217.375V62.252H218.527L219.955 65H221.587C221.587 65 220.615 63.224 220.027 62.144C220.123 62.096 220.219 62.048 220.315 61.976C220.483 61.856 220.855 61.496 220.963 61.328C221.119 61.1 221.191 60.836 221.191 60.548ZM219.727 60.56C219.655 60.68 219.451 60.848 219.415 60.848H217.375V59.204H219.415C219.535 59.264 219.667 59.396 219.727 59.492V60.56Z" fill="white"/>
<path d="M233.352 65V63.584H230.16V57.8H228.696V65H233.352Z" fill="white"/>
<path d="M245.661 63.188V59.636C245.661 59.384 245.625 59.132 245.457 58.892C245.313 58.7 244.869 58.184 244.605 58.016C244.377 57.872 244.065 57.8 243.813 57.8H240.321V65H243.813C244.089 65 244.377 64.88 244.581 64.772C244.845 64.616 245.301 64.16 245.469 63.92C245.613 63.692 245.661 63.404 245.661 63.188ZM244.197 63.14C244.077 63.368 243.921 63.5 243.753 63.596H241.785V59.204H243.753C243.933 59.312 244.089 59.432 244.197 59.696V63.14Z" fill="white"/>
<path d="M261.134 57.8H259.574C259.262 59.252 258.95 60.776 258.638 62.24L257.594 57.8H256.106C255.77 59.252 255.398 60.776 255.062 62.24L254.114 57.8H252.602L254.246 65H255.818C256.154 63.608 256.514 62.18 256.85 60.788L257.894 65H259.466L261.134 57.8Z" fill="white"/>
<path d="M269.525 65V57.8H268.049V65H269.525Z" fill="white"/>
<path d="M282.399 63.188V59.636C282.399 59.384 282.363 59.132 282.195 58.892C282.051 58.7 281.607 58.184 281.343 58.016C281.115 57.872 280.803 57.8 280.551 57.8H277.059V65H280.551C280.827 65 281.115 64.88 281.319 64.772C281.583 64.616 282.039 64.16 282.207 63.92C282.351 63.692 282.399 63.404 282.399 63.188ZM280.935 63.14C280.815 63.368 280.659 63.5 280.491 63.596H278.523V59.204H280.491C280.671 59.312 280.827 59.432 280.935 59.696V63.14Z" fill="white"/>
<path d="M294.561 65V63.596H291.297V62.084H294.453V60.68H291.297V59.204H294.561V57.8H289.833V65H294.561Z" fill="white"/>
<path d="M127.246 80V72.8H125.662C125.134 73.868 124.606 74.984 124.078 76.064L122.47 72.8H120.874V80H122.338V75.68L123.574 78.284H124.534C124.942 77.42 125.374 76.544 125.782 75.668V80H127.246Z" fill="white"/>
<path d="M138.784 80L136.3 72.8H134.68L132.184 80H133.744C133.9 79.556 134.08 79.064 134.236 78.62H136.744L137.224 80H138.784ZM136.3 77.216H134.68C134.944 76.448 135.22 75.668 135.484 74.9L136.3 77.216Z" fill="white"/>
<path d="M148.644 72.8H146.988L145.464 75.332L143.964 72.8H142.308L144.72 76.88V80H146.196V76.88L148.644 72.8Z" fill="white"/>
<path d="M163.815 80V72.8H161.043V74.228H162.339V80H163.815Z" fill="white"/>
<path d="M175.455 73.904V72.8H170.511V74.204H173.727L170.811 80H172.479L175.455 73.904Z" fill="white"/>
<path d="M183.794 77.708V76.352H180.686V77.708H183.794Z" fill="white"/>
<path d="M191.032 74.156H192.388C192.424 74.156 192.592 74.3 192.676 74.456V75.2C192.676 75.248 192.652 75.296 192.604 75.32C191.8 75.716 190.96 76.124 190.156 76.52C189.64 76.772 189.22 77.252 189.22 77.876V80H194.044V78.596H190.684V77.912C190.684 77.852 190.732 77.84 190.792 77.804C191.596 77.408 192.412 77.012 193.216 76.616C193.708 76.376 194.14 75.896 194.14 75.236V74.48C194.14 74.372 194.116 73.952 193.924 73.7C193.792 73.532 193.444 73.16 193.264 73.04C193.024 72.872 192.688 72.752 192.388 72.752H191.008C190.276 72.752 189.712 73.364 189.424 73.748C189.316 73.892 189.22 74.072 189.124 74.3L190.528 74.648C190.612 74.444 190.9 74.228 191.032 74.156Z" fill="white"/>
<path d="M204.34 78.32V77.36C204.34 76.892 204.124 76.592 203.92 76.352C204.124 76.124 204.34 75.824 204.34 75.368V74.48C204.34 74.216 204.256 73.916 204.112 73.7C203.98 73.532 203.632 73.16 203.452 73.04C203.212 72.872 202.876 72.752 202.576 72.752H201.064C200.764 72.752 200.428 72.872 200.188 73.04C200.008 73.184 199.636 73.532 199.528 73.7C199.384 73.916 199.3 74.216 199.3 74.48V75.368C199.3 75.836 199.504 76.112 199.72 76.352C199.504 76.58 199.3 76.904 199.3 77.36V78.32C199.3 78.584 199.384 78.884 199.528 79.112C199.648 79.292 200.032 79.664 200.188 79.784C200.428 79.964 200.752 80.06 201.064 80.06H202.576C202.876 80.06 203.212 79.952 203.452 79.784C203.644 79.652 204.004 79.268 204.112 79.112C204.268 78.884 204.34 78.596 204.34 78.32ZM202.876 78.356C202.792 78.512 202.6 78.656 202.564 78.656H201.076C201.04 78.656 200.86 78.512 200.764 78.344V77.384C200.86 77.204 201.028 77.06 201.064 77.06H202.576C202.612 77.06 202.78 77.204 202.876 77.384V78.356ZM202.876 75.38C202.792 75.548 202.612 75.692 202.576 75.692H201.064C201.028 75.692 200.848 75.56 200.764 75.38V74.456C200.848 74.3 201.04 74.156 201.076 74.156H202.564C202.6 74.156 202.768 74.3 202.876 74.468V75.38Z" fill="white"/>
<path d="M211.851 78.908L210.471 78.488L209.295 80.996H210.891L211.851 78.908Z" fill="white"/>
<path d="M226.028 74.156H227.384C227.42 74.156 227.588 74.3 227.672 74.456V75.2C227.672 75.248 227.648 75.296 227.6 75.32C226.796 75.716 225.956 76.124 225.152 76.52C224.636 76.772 224.216 77.252 224.216 77.876V80H229.04V78.596H225.68V77.912C225.68 77.852 225.728 77.84 225.788 77.804C226.592 77.408 227.408 77.012 228.212 76.616C228.704 76.376 229.136 75.896 229.136 75.236V74.48C229.136 74.372 229.112 73.952 228.92 73.7C228.788 73.532 228.44 73.16 228.26 73.04C228.02 72.872 227.684 72.752 227.384 72.752H226.004C225.272 72.752 224.708 73.364 224.42 73.748C224.312 73.892 224.216 74.072 224.12 74.3L225.524 74.648C225.608 74.444 225.896 74.228 226.028 74.156Z" fill="white"/>
<path d="M239.396 78.212V74.6C239.396 74.336 239.348 74.072 239.192 73.844C239.048 73.652 238.592 73.148 238.304 72.98H238.316C238.112 72.86 237.824 72.752 237.536 72.752H236.12C235.82 72.752 235.532 72.86 235.328 72.98C235.064 73.136 234.596 73.652 234.452 73.844C234.296 74.072 234.248 74.336 234.248 74.6V78.212C234.248 78.464 234.296 78.728 234.452 78.956C234.596 79.16 235.064 79.676 235.328 79.832C235.532 79.952 235.82 80.06 236.12 80.06H237.536C237.824 80.06 238.112 79.952 238.316 79.832H238.304C238.592 79.664 239.048 79.16 239.192 78.956C239.348 78.728 239.396 78.464 239.396 78.212ZM237.932 78.212C237.8 78.404 237.596 78.596 237.5 78.656H236.144C236.036 78.596 235.832 78.392 235.712 78.212V74.612C235.856 74.408 236.06 74.228 236.156 74.156H237.512C237.632 74.228 237.848 74.444 237.932 74.6V78.212Z" fill="white"/>
<path d="M246.403 74.156H247.759C247.795 74.156 247.963 74.3 248.047 74.456V75.2C248.047 75.248 248.023 75.296 247.975 75.32C247.171 75.716 246.331 76.124 245.527 76.52C245.011 76.772 244.591 77.252 244.591 77.876V80H249.415V78.596H246.055V77.912C246.055 77.852 246.103 77.84 246.163 77.804C246.967 77.408 247.783 77.012 248.587 76.616C249.079 76.376 249.511 75.896 249.511 75.236V74.48C249.511 74.372 249.487 73.952 249.295 73.7C249.163 73.532 248.815 73.16 248.635 73.04C248.395 72.872 248.059 72.752 247.759 72.752H246.379C245.647 72.752 245.083 73.364 244.795 73.748C244.687 73.892 244.591 74.072 244.495 74.3L245.899 74.648C245.983 74.444 246.271 74.228 246.403 74.156Z" fill="white"/>
<path d="M258.331 80V72.8H255.559V74.228H256.855V80H258.331Z" fill="white"/>
<path d="M262.266 149.278L282.542 160.984V266.952L190.771 319.936L180.557 314.039V136.796L160.129 148.59V302.245L139.702 290.451V160.384L119.275 172.177V278.657L99 266.952V160.984L190.771 108L200.984 113.897V291.283L221.411 279.49V125.69L241.839 137.484V267.696L262.266 255.902V149.278Z" fill="white"/>
<path d="M77.3519 350.254H69.3411L62.8762 369.883L56.4114 350.254H48.6348V383.047H54.3501V360.841L60.4402 378.924H65.3591L71.6366 360.185V383.047H77.3519V350.254Z" fill="white"/>
<path d="M103.128 350.254H88.9806C86.9661 350.254 85.5139 351.706 85.5139 353.627V379.674C85.5139 381.548 86.9661 383.047 88.9806 383.047H103.128C105.19 383.047 106.595 381.548 106.595 379.674V353.627C106.595 351.706 105.19 350.254 103.128 350.254ZM100.88 356.485V376.816C100.88 377.425 100.645 377.753 99.9896 377.753H92.1193C91.4634 377.753 91.2292 377.425 91.2292 376.816V356.485C91.2292 355.876 91.4634 355.548 92.1193 355.548H99.9896C100.645 355.548 100.88 355.876 100.88 356.485Z" fill="white"/>
<path d="M132.372 350.254H114.757V383.047H132.372C134.433 383.047 135.838 381.548 135.838 379.674V353.627C135.838 351.706 134.433 350.254 132.372 350.254ZM130.123 356.485V376.816C130.123 377.425 129.889 377.753 129.233 377.753H120.473V355.548H129.233C129.889 355.548 130.123 355.876 130.123 356.485Z" fill="white"/>
<path d="M162.878 355.548V350.254H143.999V383.047H162.878V377.753H149.714V369.274H159.552V363.933H149.714V355.548H162.878Z" fill="white"/>
<path d="M188.385 350.254H170.724V383.047H176.439V370.164H185.106C185.808 370.164 186.136 370.539 186.136 371.241V383.047H191.852V370.492C191.852 368.993 191.055 367.868 189.416 367.54C191.055 367.119 191.852 366.041 191.852 364.542V353.627C191.852 351.706 190.399 350.254 188.385 350.254ZM186.136 356.485V363.793C186.136 364.495 185.808 364.87 185.106 364.87H176.439V355.548H185.246C185.902 355.548 186.136 355.876 186.136 356.485Z" fill="white"/>
<path d="M216.967 350.254V371.71L206.661 350.254H200.102V383.047H205.724V361.45L216.124 383.047H222.589V350.254H216.967Z" fill="white"/>
<path d="M273.839 350.254L270.419 373.631L265.781 354.376H260.581L255.944 373.631L252.524 350.254H246.199L251.774 383.047H259.317L263.205 366.51L267.046 383.047H274.589L280.163 350.254H273.839Z" fill="white"/>
<path d="M305.607 355.548V350.254H286.728V383.047H305.607V377.753H292.443V369.274H302.281V363.933H292.443V355.548H305.607Z" fill="white"/>
<path d="M331.067 350.254H313.453V383.047H331.067C333.129 383.047 334.534 381.548 334.534 379.674V369.461C334.534 367.962 333.785 366.838 332.098 366.51C333.785 366.135 334.534 365.011 334.534 363.512V353.627C334.534 351.706 333.129 350.254 331.067 350.254ZM328.819 356.485V362.762C328.819 363.512 328.491 363.84 327.788 363.84H319.168V355.548H327.929C328.585 355.548 328.819 355.876 328.819 356.485ZM328.819 370.211V376.816C328.819 377.425 328.585 377.753 327.929 377.753H319.168V369.18H327.788C328.491 369.18 328.819 369.508 328.819 370.211Z" fill="white"/>
<path d="M107.776 407.796C106.771 405.555 105.515 403.314 103.505 400.966C100.491 397.443 94.7124 392 87.0502 392H70.5952C67.5806 392 64.4403 393.067 62.4305 394.028C59.5415 395.522 54.6427 400.005 53.1354 401.713C51.5024 403.741 51 405.982 51 408.33V440.67C51 442.805 51.6281 445.259 53.1354 447.287C54.8939 449.315 59.6671 453.585 62.3049 454.972C64.4403 456.039 67.5806 457 70.5952 457H87.0502C94.7124 457 100.616 451.557 103.631 447.928C105.264 446.007 106.771 443.765 107.902 441.097L93.5819 438.108C91.8234 440.777 89.8136 443.018 87.1758 444.512H71.2233C68.2086 443.018 66.3245 440.67 66.3245 440.563V408.757C67.455 407.263 69.9672 405.235 71.2233 404.488H86.9246C90.4417 406.516 91.949 408.33 93.5819 411.212L107.776 407.796Z" fill="#191919"/>
<path d="M184.814 440.563V408.437C184.814 406.089 184.311 403.741 182.678 401.713C181.045 400.005 176.272 395.415 173.509 394.028C171.373 392.961 168.233 392 165.218 392H146.126C142.985 392 139.971 392.961 137.835 394.028C135.072 395.415 130.173 400.005 128.666 401.713C127.033 403.741 126.53 406.089 126.53 408.437V440.563C126.53 442.805 127.033 445.153 128.666 447.181C130.173 448.995 135.072 453.585 137.835 454.972C139.971 456.039 142.985 457 146.126 457H165.218C168.233 457 171.373 456.039 173.509 454.972C176.272 453.585 181.045 448.995 182.678 447.181C184.311 445.153 184.814 442.805 184.814 440.563ZM169.489 440.563C168.107 442.057 165.846 443.872 164.842 444.512H146.377C145.372 443.979 143.237 442.164 141.855 440.563V408.544C143.362 406.729 145.498 405.128 146.502 404.488H164.967C166.223 405.128 168.61 407.156 169.489 408.437V440.563Z" fill="#191919"/>
<path d="M260.893 456.466V392.427H245.568V430.637L221.451 392.427H205.75V456.466H221.074V418.79L245.442 456.466H260.893Z" fill="#191919"/>
<path d="M332 404.915V392.427H282.51V456.466H297.834V430.53H330.241V418.043H297.834V404.915H332Z" fill="#191919"/>
<defs>
<filter id="filter0_d" x="0" y="0" width="382" height="382" filterUnits="userSpaceOnUse" color-interpolation-filters="sRGB">
<feFlood flood-opacity="0" result="BackgroundImageFix"/>
<feColorMatrix in="SourceAlpha" type="matrix" values="0 0 0 0 0 0 0 0 0 0 0 0 0 0 0 0 0 0 127 0"/>
<feOffset dy="-20"/>
<feGaussianBlur stdDeviation="10"/>
<feColorMatrix type="matrix" values="0 0 0 0 0 0 0 0 0 0 0 0 0 0 0 0 0 0 0.2 0"/>
<feBlend mode="normal" in2="BackgroundImageFix" result="effect1_dropShadow"/>
<feBlend mode="normal" in="SourceGraphic" in2="effect1_dropShadow" result="shape"/>
</filter>
</defs>
</svg>
