<svg width="275" height="88" viewBox="0 0 275 88" fill="none" xmlns="http://www.w3.org/2000/svg">
<path d="M63.9251 22.6337L70.6218 26.5V61.5L40.3109 79L36.9373 77.0522V18.511L30.1903 22.4064V73.1569L23.4433 69.2615V26.3017L16.6965 30.197V65.3662L10 61.5V26.5L40.3109 9L43.6843 10.9476V69.5364L50.4311 65.6411V14.8429L57.178 18.7383V61.7458L63.9251 57.8504V22.6337Z" fill="white"/>
<path d="M40.75 2.70096L40 2.26795L39.25 2.70096L4.60898 22.701L3.85898 23.134V24V64V64.866L4.60898 65.299L39.25 85.299L40 85.732L40.75 85.299L75.391 65.299L76.141 64.866V64V24V23.134L75.391 22.701L40.75 2.70096Z" stroke="white" stroke-width="3"/>
<path d="M122.226 10.7188H117.494L113.676 22.2145L109.857 10.7188H105.263V29.9241H108.639V16.9193L112.237 27.5097H115.142L118.85 16.5352V29.9241H122.226V10.7188Z" fill="white"/>
<path d="M137.452 10.7188H129.095C127.905 10.7188 127.047 11.5693 127.047 12.6942V27.9487C127.047 29.0462 127.905 29.9241 129.095 29.9241H137.452C138.669 29.9241 139.499 29.0462 139.499 27.9487V12.6942C139.499 11.5693 138.669 10.7188 137.452 10.7188ZM136.123 14.3678V26.2751C136.123 26.6318 135.985 26.8238 135.598 26.8238H130.949C130.561 26.8238 130.423 26.6318 130.423 26.2751V14.3678C130.423 14.0111 130.561 13.819 130.949 13.819H135.598C135.985 13.819 136.123 14.0111 136.123 14.3678Z" fill="white"/>
<path d="M154.725 10.7188H144.321V29.9241H154.725C155.943 29.9241 156.773 29.0462 156.773 27.9487V12.6942C156.773 11.5693 155.943 10.7188 154.725 10.7188ZM153.397 14.3678V26.2751C153.397 26.6318 153.259 26.8238 152.871 26.8238H147.697V13.819H152.871C153.259 13.819 153.397 14.0111 153.397 14.3678Z" fill="white"/>
<path d="M172.745 13.819V10.7188H161.593V29.9241H172.745V26.8238H164.969V21.8579H170.78V18.7301H164.969V13.819H172.745Z" fill="white"/>
<path d="M187.811 10.7188H177.379V29.9241H180.755V22.3792H185.874C186.289 22.3792 186.483 22.5987 186.483 23.0102V29.9241H189.859V22.5712C189.859 21.6933 189.388 21.0348 188.42 20.8427C189.388 20.5958 189.859 19.9648 189.859 19.0868V12.6942C189.859 11.5693 189.001 10.7188 187.811 10.7188ZM186.483 14.3678V18.6478C186.483 19.0594 186.289 19.2789 185.874 19.2789H180.755V13.819H185.957C186.344 13.819 186.483 14.0111 186.483 14.3678Z" fill="white"/>
<path d="M204.694 10.7188V23.2846L198.606 10.7188H194.732V29.9241H198.053V17.276L204.196 29.9241H208.014V10.7188H204.694Z" fill="white"/>
<path d="M238.287 10.7188L236.267 24.4094L233.528 13.1331H230.456L227.717 24.4094L225.697 10.7188H221.961L225.254 29.9241H229.709L232.006 20.2391L234.275 29.9241H238.73L242.023 10.7188H238.287Z" fill="white"/>
<path d="M257.052 13.819V10.7188H245.9V29.9241H257.052V26.8238H249.276V21.8579H255.087V18.7301H249.276V13.819H257.052Z" fill="white"/>
<path d="M272.091 10.7188H261.686V29.9241H272.091C273.308 29.9241 274.138 29.0462 274.138 27.9487V21.9676C274.138 21.0897 273.696 20.4312 272.699 20.2391C273.696 20.0196 274.138 19.3612 274.138 18.4832V12.6942C274.138 11.5693 273.308 10.7188 272.091 10.7188ZM270.762 14.3678V18.0442C270.762 18.4832 270.569 18.6753 270.154 18.6753H265.062V13.819H270.237C270.624 13.819 270.762 14.0111 270.762 14.3678ZM270.762 22.4066V26.2751C270.762 26.6318 270.624 26.8238 270.237 26.8238H265.062V21.803H270.154C270.569 21.803 270.762 21.9951 270.762 22.4066Z" fill="white"/>
<path d="M139.146 49.4778C138.542 48.133 137.787 46.7882 136.578 45.3793C134.765 43.266 131.29 40 126.681 40H116.785C114.972 40 113.083 40.6404 111.875 41.2167C110.137 42.1133 107.191 44.803 106.284 45.8276C105.302 47.0443 105 48.3892 105 49.798V69.202C105 70.4828 105.378 71.9557 106.284 73.1724C107.342 74.3892 110.213 76.9507 111.799 77.7833C113.083 78.4236 114.972 79 116.785 79H126.681C131.29 79 134.84 75.734 136.653 73.5567C137.635 72.4039 138.542 71.0591 139.222 69.4581L130.61 67.665C129.552 69.266 128.343 70.6108 126.757 71.5074H117.163C115.35 70.6108 114.216 69.202 114.216 69.1379V50.0542C114.896 49.1576 116.407 47.9409 117.163 47.4926H126.606C128.721 48.7094 129.628 49.798 130.61 51.5271L139.146 49.4778Z" fill="white"/>
<path d="M185.479 69.1379V49.8621C185.479 48.4532 185.176 47.0443 184.194 45.8276C183.212 44.803 180.342 42.0493 178.68 41.2167C177.395 40.5764 175.507 40 173.694 40H162.211C160.322 40 158.509 40.5764 157.225 41.2167C155.563 42.0493 152.617 44.803 151.71 45.8276C150.728 47.0443 150.426 48.4532 150.426 49.8621V69.1379C150.426 70.4828 150.728 71.8916 151.71 73.1084C152.617 74.197 155.563 76.9507 157.225 77.7833C158.509 78.4236 160.322 79 162.211 79H173.694C175.507 79 177.395 78.4236 178.68 77.7833C180.342 76.9507 183.212 74.197 184.194 73.1084C185.176 71.8916 185.479 70.4828 185.479 69.1379ZM176.262 69.1379C175.431 70.0345 174.071 71.1232 173.467 71.5074H162.362C161.757 71.1872 160.473 70.0985 159.642 69.1379V49.9261C160.549 48.8374 161.833 47.8768 162.437 47.4926H173.543C174.298 47.8768 175.733 49.0936 176.262 49.8621V69.1379Z" fill="white"/>
<path d="M231.234 78.6798V40.2562H222.018V63.1823L207.513 40.2562H198.07V78.6798H207.287V56.0739L221.942 78.6798H231.234Z" fill="white"/>
<path d="M274 47.7488V40.2562H244.235V78.6798H253.452V63.1182H272.942V55.6256H253.452V47.7488H274Z" fill="white"/>
</svg>
